<mxfile host="app.diagrams.net" agent="Mozilla/5.0 (Windows NT 10.0; Win64; x64) AppleWebKit/537.36 (KHTML, like Gecko) Chrome/139.0.0.0 Safari/537.36" version="28.1.2">
  <diagram name="PÃ¡gina-1" id="_AiGoXHjIZGB4jE922pp">
    <mxGraphModel dx="1032" dy="579" grid="1" gridSize="10" guides="1" tooltips="1" connect="1" arrows="1" fold="1" page="1" pageScale="1" pageWidth="827" pageHeight="1169" math="0" shadow="0">
      <root>
        <mxCell id="0" />
        <mxCell id="1" parent="0" />
        <mxCell id="g2rhVJy3PN2rY7wzePK4-17" style="edgeStyle=none;curved=1;rounded=0;orthogonalLoop=1;jettySize=auto;html=1;fontSize=12;startSize=8;endSize=8;" edge="1" parent="1" source="g2rhVJy3PN2rY7wzePK4-1" target="g2rhVJy3PN2rY7wzePK4-11">
          <mxGeometry relative="1" as="geometry" />
        </mxCell>
        <mxCell id="g2rhVJy3PN2rY7wzePK4-1" value="Inicio" style="ellipse;whiteSpace=wrap;html=1;aspect=fixed;" vertex="1" parent="1">
          <mxGeometry x="360" y="20" width="80" height="80" as="geometry" />
        </mxCell>
        <mxCell id="g2rhVJy3PN2rY7wzePK4-7" value="Fin" style="ellipse;whiteSpace=wrap;html=1;aspect=fixed;" vertex="1" parent="1">
          <mxGeometry x="345" y="620" width="110" height="110" as="geometry" />
        </mxCell>
        <mxCell id="g2rhVJy3PN2rY7wzePK4-19" style="edgeStyle=none;curved=1;rounded=0;orthogonalLoop=1;jettySize=auto;html=1;entryX=0.5;entryY=0;entryDx=0;entryDy=0;fontSize=12;startSize=8;endSize=8;" edge="1" parent="1" source="g2rhVJy3PN2rY7wzePK4-9" target="g2rhVJy3PN2rY7wzePK4-12">
          <mxGeometry relative="1" as="geometry" />
        </mxCell>
        <mxCell id="g2rhVJy3PN2rY7wzePK4-9" value="convertir_medidas_en_pulgadas = convertir_medidas_en_cms / 2.54" style="rounded=0;whiteSpace=wrap;html=1;fillColor=#bac8d3;strokeColor=#23445d;" vertex="1" parent="1">
          <mxGeometry x="270" y="300" width="260" height="130" as="geometry" />
        </mxCell>
        <mxCell id="g2rhVJy3PN2rY7wzePK4-18" style="edgeStyle=none;curved=1;rounded=0;orthogonalLoop=1;jettySize=auto;html=1;entryX=0.5;entryY=0;entryDx=0;entryDy=0;fontSize=12;startSize=8;endSize=8;" edge="1" parent="1" source="g2rhVJy3PN2rY7wzePK4-11" target="g2rhVJy3PN2rY7wzePK4-9">
          <mxGeometry relative="1" as="geometry" />
        </mxCell>
        <mxCell id="g2rhVJy3PN2rY7wzePK4-11" value="mostrar mensaje: &quot;Por favor&amp;nbsp;&lt;div&gt;ingrese la medida de la pieza (en cm): &quot;&lt;/div&gt;" style="shape=parallelogram;perimeter=parallelogramPerimeter;whiteSpace=wrap;html=1;fixedSize=1;fillColor=#fad7ac;strokeColor=#b46504;" vertex="1" parent="1">
          <mxGeometry x="260" y="140" width="280" height="120" as="geometry" />
        </mxCell>
        <mxCell id="g2rhVJy3PN2rY7wzePK4-20" style="edgeStyle=none;curved=1;rounded=0;orthogonalLoop=1;jettySize=auto;html=1;entryX=0.5;entryY=0;entryDx=0;entryDy=0;fontSize=12;startSize=8;endSize=8;" edge="1" parent="1" source="g2rhVJy3PN2rY7wzePK4-12" target="g2rhVJy3PN2rY7wzePK4-7">
          <mxGeometry relative="1" as="geometry" />
        </mxCell>
        <mxCell id="g2rhVJy3PN2rY7wzePK4-12" value="Mostrar mensaje: &quot;Las medidas en pulgadas de la pieza ingresada son:&quot;, convertir_medidas_en_pulgadas" style="shape=parallelogram;perimeter=parallelogramPerimeter;whiteSpace=wrap;html=1;fixedSize=1;fillColor=#fad7ac;strokeColor=#b46504;" vertex="1" parent="1">
          <mxGeometry x="285" y="460" width="230" height="115" as="geometry" />
        </mxCell>
      </root>
    </mxGraphModel>
  </diagram>
</mxfile>
